# xmcd
#
# Track frame offsets:
#	150
#	16050
#	30819
#	51350
#	69948
#	88317
#	100793
#	120174
#	135177
#	149934
#	168575
#	186780
#
# Disc length: 2703 seconds
#
# Revision: 1
# Processed by: cddbd v1.5.2PL0 Copyright (c) Steve Scherf et al.
# Submitted via: EasyCDDAExtractor 11.1.0.1
#
DISCID=970a8d0c
DTITLE=Martin Våland - Jærbu i Junaiten
DYEAR=2008
DGENRE=Bluegrass
TTITLE0=Old Home Place
TTITLE1=Way You Been Gone
TTITLE2=In The Pines
TTITLE3=Catfish John
TTITLE4=Another Night
TTITLE5=Blue Mone of Kentucky
TTITLE6=Tecumseh Valley
TTITLE7=I Saw The Light
TTITLE8=Cabin Home on The Hill
TTITLE9=Wayfaring Stranger
TTITLE10=Roll In My Sweet Baby`s Arms
TTITLE11=Burnin`the Honky Tonky Down
EXTD=
EXTT0=
EXTT1=
EXTT2=
EXTT3=
EXTT4=
EXTT5=
EXTT6=
EXTT7=
EXTT8=
EXTT9=
EXTT10=
EXTT11=
PLAYORDER=
